<svg xmlns="http://www.w3.org/2000/svg" xmlns:xlink="http://www.w3.org/1999/xlink" viewBox="0,0,256,256" width="240px" height="240px" fill-rule="nonzero"><defs><linearGradient x1="24" y1="12.096" x2="24" y2="54.521" gradientUnits="userSpaceOnUse" id="color-1"><stop offset="0" stop-color="#abb2bf"></stop><stop offset="1" stop-color="#262626" stop-opacity="0.8"></stop></linearGradient><linearGradient x1="38.859" y1="37.359" x2="23.974" y2="22.474" gradientUnits="userSpaceOnUse" id="color-2"><stop offset="0" stop-color="#abb2bf"></stop><stop offset="1" stop-color="#262626" stop-opacity="0.8"></stop></linearGradient><linearGradient x1="48.145" y1="26.145" x2="28.298" y2="6.298" gradientUnits="userSpaceOnUse" id="color-3"><stop offset="0" stop-color="#abb2bf"></stop><stop offset="1" stop-color="#262626" stop-opacity="0.8"></stop></linearGradient><linearGradient x1="9.141" y1="37.359" x2="24.026" y2="22.474" gradientUnits="userSpaceOnUse" id="color-4"><stop offset="0" stop-color="#abb2bf"></stop><stop offset="1" stop-color="#262626" stop-opacity="0.8"></stop></linearGradient><linearGradient x1="-0.145" y1="26.145" x2="19.702" y2="6.298" gradientUnits="userSpaceOnUse" id="color-5"><stop offset="0" stop-color="#abb2bf"></stop><stop offset="1" stop-color="#262626" stop-opacity="0.8"></stop></linearGradient></defs><g fill="none" fill-rule="nonzero" stroke="none" stroke-width="1" stroke-linecap="butt" stroke-linejoin="miter" stroke-miterlimit="10" stroke-dasharray="" stroke-dashoffset="0" font-family="none" font-weight="none" font-size="none" text-anchor="none" style="mix-blend-mode: normal"><g transform="scale(5.33333,5.33333)"><path d="M43.922,25.125l-1.922,-5.125h-10h-16h-10l-1.922,5.125c-0.636,1.696 -0.053,3.607 1.42,4.659l18.502,13.216l18.502,-13.215c1.473,-1.053 2.056,-2.964 1.42,-4.66z" fill="url(#color-1)"></path><path d="M24,43l18,-23h-10z" fill="url(#color-2)"></path><path d="M37,5l5,15h-10z" fill="url(#color-3)"></path><path d="M24,43l-18,-23h10z" fill="url(#color-4)"></path><path d="M11,5l-5,15h10z" fill="url(#color-5)"></path></g></g></svg>